<svg version="1.1" id="Layer_1" xmlns="http://www.w3.org/2000/svg" xmlns:xlink="http://www.w3.org/1999/xlink" x="0px" y="0px"
	 width="100%" viewBox="0 0 391 434" enable-background="new 0 0 391 434" xml:space="preserve">
<path fill="#FFFFFF" opacity="1.000000" stroke="none" 
	d="
M392.000000,190.000000 
	C392.000000,271.585419 392.000000,353.170837 392.000000,435.000000 
	C327.312653,435.000000 262.624969,435.000000 197.468658,434.531342 
	C197.000000,325.931732 197.000000,217.800766 197.000000,109.293488 
	C195.293335,109.894196 193.745956,110.297379 192.321777,110.963791 
	C184.800949,114.483002 177.304886,118.055397 169.811951,121.633865 
	C155.710617,128.368347 141.610641,135.105743 127.522072,141.866852 
	C101.093193,154.550079 74.693100,167.293701 48.215176,179.873566 
	C45.772919,181.033890 44.929539,182.247223 44.933601,184.959366 
	C45.021038,243.274963 45.024246,301.590759 44.931984,359.906342 
	C44.927124,362.979126 45.808731,364.703857 48.634434,365.984558 
	C62.260178,372.160309 75.838219,378.443542 89.379227,384.803497 
	C114.566063,396.633331 139.728638,408.515045 164.873947,420.432922 
	C174.953186,425.210114 184.960144,430.139771 195.000000,435.000000 
	C130.397812,435.000000 65.795639,435.000000 1.000000,435.000000 
	C1.000000,353.645874 1.000000,272.291595 1.371555,190.462479 
	C14.851495,182.797958 27.979227,175.643250 41.062149,168.407501 
	C51.588856,162.585526 62.081104,156.700470 72.553665,150.781525 
	C92.654434,139.420837 112.741249,128.035355 132.812531,116.622658 
	C144.686874,109.870796 156.464111,102.946342 168.390060,96.287643 
	C177.890381,90.983261 187.549759,85.963768 197.489990,80.890770 
	C198.416718,81.256508 199.004013,81.527969 199.565491,81.845139 
	C217.321915,91.875046 235.064194,101.930023 252.834351,111.935524 
	C263.840576,118.132584 274.918793,124.202126 285.910767,130.424149 
	C302.670166,139.910797 319.383728,149.478394 336.115082,159.014511 
	C348.070648,165.828613 359.994904,172.698395 371.989838,179.442459 
	C377.891052,182.760345 383.920959,185.849335 390.026276,189.333588 
	C390.773285,189.750198 391.386627,189.875092 392.000000,190.000000 
M361.077240,322.212677 
	C363.903625,322.561432 366.730042,322.910217 370.241699,323.343536 
	C369.453979,309.790863 368.713684,297.054108 367.977509,284.388458 
	C356.299744,283.240417 356.288513,283.236847 353.013123,293.535614 
	C352.574615,294.914398 352.400024,296.377167 351.960297,297.755432 
	C350.996460,300.776733 349.940979,303.768799 348.731018,307.339050 
	C346.656555,299.769135 344.897980,293.061249 342.911041,286.421722 
	C342.620758,285.451752 341.291718,284.197693 340.358185,284.121704 
	C336.957764,283.845032 333.521240,284.012421 330.107971,284.012421 
	C329.275848,297.305237 328.485962,309.923065 327.680511,322.789337 
	C330.811584,322.789337 333.224548,322.789337 336.221039,322.789337 
	C336.487061,318.247589 336.840973,313.871521 336.972229,309.488770 
	C337.100067,305.220032 337.000000,300.944489 337.000000,296.671967 
	C337.200378,296.681152 337.400757,296.690338 337.601135,296.699524 
	C339.877747,305.380035 342.154327,314.060547 344.405060,322.642365 
	C349.535919,324.004333 352.560577,323.074371 353.671844,317.019531 
	C354.894562,310.357513 357.531036,303.954956 359.784088,296.689667 
	C360.219727,305.439911 360.613739,313.353851 361.077240,322.212677 
M279.000000,353.501129 
	C279.000000,360.604492 279.000000,367.707825 279.000000,374.676758 
	C282.006958,374.676758 284.408417,374.676758 287.295166,374.676758 
	C287.295166,366.428467 287.295166,358.496246 287.295166,349.906769 
	C291.912506,358.799713 296.141113,366.943970 300.213074,374.786499 
	C303.715576,374.786499 306.662750,374.786499 309.769501,374.786499 
	C309.769501,361.834503 309.769501,349.096619 309.769501,336.245789 
	C307.135742,336.245789 304.737274,336.245789 301.875366,336.245789 
	C301.875366,344.123993 301.875366,351.770233 301.875366,360.691620 
	C297.363586,351.702332 293.466644,343.938049 289.628784,336.291443 
	C286.091156,336.291443 282.668488,336.291443 279.000000,336.291443 
	C279.000000,341.887634 279.000000,347.194733 279.000000,353.501129 
M269.786804,233.279663 
	C264.657990,233.147110 259.160461,231.764801 254.478363,233.146225 
	C245.183701,235.888580 242.759399,243.595932 242.909943,252.782364 
	C243.164001,268.286774 254.825836,273.461121 267.295471,270.231842 
	C274.619415,268.335144 278.022675,262.840240 278.833405,256.157898 
	C279.880310,247.528839 279.426239,238.892090 269.786804,233.279663 
M287.000000,304.449432 
	C286.571960,311.574280 288.948334,317.671783 295.338562,320.936218 
	C302.362396,324.524323 309.874603,324.391815 316.566406,319.712616 
	C323.399048,314.934875 324.508362,303.777466 322.030487,295.387909 
	C320.660217,290.748535 317.918518,286.672150 313.026825,285.078796 
	C299.249603,280.591248 286.050476,288.030121 287.000000,304.449432 
M248.869324,293.618195 
	C248.246216,297.427246 247.080902,301.238281 247.094528,305.045044 
	C247.151352,320.938995 259.051697,325.103424 271.124390,322.377258 
	C284.810486,319.286835 286.437561,297.586365 278.426056,288.905518 
	C270.726105,280.562195 256.797577,282.407745 248.869324,293.618195 
M224.000000,316.476990 
	C224.000000,313.702484 224.000000,310.928009 224.000000,308.162506 
	C229.669113,307.575104 231.836273,310.729706 232.953445,315.033539 
	C235.050537,323.112366 235.015137,323.123474 242.949081,322.993134 
	C243.444901,322.984985 243.939636,322.910767 244.897034,322.826721 
	C242.891708,316.699646 240.931961,310.711792 238.866211,304.400085 
	C242.771362,301.382202 244.479858,296.512665 242.880951,290.790527 
	C241.580536,286.136688 237.494217,284.557831 233.540344,284.170258 
	C227.500488,283.578217 221.359802,284.015015 215.292572,284.015015 
	C215.292572,297.306976 215.292572,310.040009 215.292572,322.686737 
	C218.326019,322.686737 221.058624,322.686737 224.000000,322.686737 
	C224.000000,320.728760 224.000000,319.082550 224.000000,316.476990 
M215.000000,361.491821 
	C215.000000,365.924896 215.000000,370.357941 215.000000,374.682983 
	C218.334732,374.682983 221.067413,374.682983 224.172455,374.682983 
	C224.172455,369.626434 224.172455,364.882507 224.172455,360.152039 
	C229.479126,359.531464 231.659378,362.511871 232.835632,366.604523 
	C235.315460,375.232971 235.276978,375.244537 243.983948,374.931274 
	C244.147491,374.925354 244.308990,374.861938 244.901047,374.728638 
	C242.903534,368.686493 240.921417,362.690918 238.840012,356.394958 
	C242.764847,353.411224 244.503265,348.461487 242.871918,342.760254 
	C241.547760,338.132629 237.486572,336.539856 233.512665,336.163849 
	C227.472229,335.592316 221.337769,336.014313 215.000000,336.014313 
	C215.000000,344.556213 215.000000,352.525665 215.000000,361.491821 
M312.805603,247.683304 
	C312.870422,246.193954 312.985626,244.704819 312.991394,243.215240 
	C313.018738,236.152954 310.460876,232.734085 303.527130,232.125031 
	C297.487579,231.594543 291.364532,232.014542 285.255371,232.014542 
	C285.255371,245.267807 285.255371,257.978607 285.255371,270.734741 
	C288.243774,270.734741 290.970795,270.734741 294.041321,270.734741 
	C294.041321,265.709717 294.041321,260.944031 294.041321,256.179718 
	C299.524567,256.262360 301.361908,257.631866 302.766174,262.425385 
	C305.322662,271.151947 305.322693,271.154633 313.758484,270.965942 
	C314.029846,270.959869 314.297241,270.774261 314.875244,270.555481 
	C312.864807,264.535187 310.855682,258.518738 308.828247,252.447479 
	C309.664978,251.414368 310.941803,249.837921 312.805603,247.683304 
M259.515808,375.000000 
	C263.952301,375.000000 268.388794,375.000000 272.674927,375.000000 
	C272.674927,372.316772 272.674927,370.252808 272.674927,367.770264 
	C267.610596,367.770264 262.868011,367.770264 258.358215,367.770264 
	C258.358215,364.583801 258.358215,361.851898 258.358215,358.702698 
	C263.120178,358.702698 267.524078,358.702698 271.798767,358.702698 
	C271.798767,356.314148 271.798767,354.363800 271.798767,351.985199 
	C267.198914,351.985199 262.778564,351.985199 258.239136,351.985199 
	C258.239136,348.817322 258.239136,346.086456 258.239136,342.927673 
	C263.214935,342.927673 267.968628,342.927673 272.732086,342.927673 
	C272.732086,340.421417 272.732086,338.357635 272.732086,336.287048 
	C264.728882,336.287048 256.996124,336.287048 249.301041,336.287048 
	C249.301041,349.305420 249.301041,362.034546 249.301041,375.000000 
	C252.576691,375.000000 255.553467,375.000000 259.515808,375.000000 
M219.662949,232.000046 
	C218.443008,232.792892 216.175735,233.565964 216.160339,234.381561 
	C215.932373,246.456589 216.003143,258.537262 216.003143,270.773499 
	C219.169662,270.773499 221.894653,270.773499 225.040680,270.773499 
	C225.040680,265.828003 225.040680,261.090363 225.040680,255.955139 
	C229.522293,255.955139 233.599380,255.955139 237.762238,255.955139 
	C237.762238,253.468826 237.762238,251.408890 237.762238,248.932999 
	C233.466537,248.932999 229.389236,248.932999 225.253174,248.932999 
	C225.253174,245.444580 225.253174,242.384583 225.253174,238.913803 
	C229.900726,238.913803 234.311584,238.913803 238.738922,238.913803 
	C238.738922,236.429337 238.738922,234.368881 238.738922,232.000000 
	C232.532639,232.000000 226.581848,232.000000 219.662949,232.000046 
M325.000000,350.582855 
	C325.000000,358.660065 325.000000,366.737274 325.000000,374.678162 
	C328.350159,374.678162 331.078766,374.678162 334.199432,374.678162 
	C334.199432,364.306366 334.199432,354.251312 334.199432,343.795227 
	C337.682831,343.795227 340.757080,343.795227 343.672241,343.795227 
	C343.672241,340.973907 343.672241,338.577667 343.672241,336.306702 
	C333.620209,336.306702 323.898407,336.306702 314.323120,336.306702 
	C314.323120,339.025818 314.323120,341.422028 314.323120,344.234955 
	C318.042755,344.234955 321.446228,344.234955 325.000000,344.234955 
	C325.000000,346.313965 325.000000,347.961121 325.000000,350.582855 
z"/>
<path fill="#01A2A6" opacity="1.000000" stroke="none" 
	d="
M195.333328,435.000000 
	C184.960144,430.139771 174.953186,425.210114 164.873947,420.432922 
	C139.728638,408.515045 114.566063,396.633331 89.379227,384.803497 
	C75.838219,378.443542 62.260178,372.160309 48.634434,365.984558 
	C45.808731,364.703857 44.927124,362.979126 44.931984,359.906342 
	C45.024246,301.590759 45.021038,243.274963 44.933601,184.959366 
	C44.929539,182.247223 45.772919,181.033890 48.215176,179.873566 
	C74.693100,167.293701 101.093193,154.550079 127.522072,141.866852 
	C141.610641,135.105743 155.710617,128.368347 169.811951,121.633865 
	C177.304886,118.055397 184.800949,114.483002 192.321777,110.963791 
	C193.745956,110.297379 195.293335,109.894196 197.000000,109.293488 
	C197.000000,217.800766 197.000000,325.931732 197.000000,434.531342 
	C196.555557,435.000000 196.111099,435.000000 195.333328,435.000000 
M116.000000,242.500000 
	C116.000000,250.919769 116.000000,259.339539 116.000000,267.648651 
	C133.704437,267.648651 150.750137,267.648651 167.882782,267.648651 
	C167.882782,231.717667 167.882782,196.138077 167.882782,160.324295 
	C166.329437,160.854767 164.930618,161.274857 163.574554,161.804398 
	C148.935089,167.521149 134.345078,173.369049 119.630386,178.884552 
	C116.817345,179.938950 115.911140,181.119919 115.931671,184.068054 
	C116.064919,203.211258 116.000015,222.355865 116.000000,242.500000 
M125.366020,367.065125 
	C139.475647,372.624329 153.585281,378.183563 167.775589,383.774567 
	C167.775589,347.989777 167.775589,312.726257 167.775589,277.258148 
	C150.499222,277.258148 133.447708,277.258148 116.000000,277.258148 
	C116.000000,279.305450 116.000000,281.099823 116.000000,282.894196 
	C116.000000,306.546936 116.000000,330.199646 115.999992,353.852386 
	C115.999992,363.454498 115.999992,363.454498 125.366020,367.065125 
M69.000000,254.491653 
	C69.000000,258.916565 69.000000,263.341492 69.000000,267.633057 
	C82.055283,267.633057 94.442909,267.633057 106.642242,267.633057 
	C106.642242,239.581467 106.642242,211.898010 106.642242,183.963135 
	C93.912865,188.937500 81.580475,193.756714 69.000000,198.672882 
	C69.000000,216.880936 69.000000,235.187973 69.000000,254.491653 
M71.968407,347.470551 
	C83.556717,351.863342 95.145027,356.256134 106.613235,360.603424 
	C106.613235,332.536713 106.613235,304.835114 106.613235,277.235992 
	C93.962456,277.235992 81.699638,277.235992 69.517868,277.235992 
	C69.303207,277.755188 69.078423,278.045471 69.077927,278.336182 
	C69.040955,299.971344 68.983566,321.606720 69.097755,343.241180 
	C69.104469,344.512451 70.506607,345.776398 71.968407,347.470551 
z"/>
<path fill="#FFFFFF" opacity="1.000000" stroke="none" 
	d="
M198.000000,1.000000 
	C262.585754,1.000000 327.171509,1.000000 392.000000,1.000000 
	C392.000000,52.687309 392.000000,104.374992 391.754517,156.525604 
	C391.509064,156.988541 391.026947,156.895157 390.883667,156.576691 
	C386.282837,152.538086 381.884857,148.743530 377.355164,145.113388 
	C368.059052,137.663376 358.667175,130.332916 349.361298,122.894936 
	C338.634613,114.321327 327.978546,105.659370 317.254669,97.082230 
	C304.629547,86.984451 291.969177,76.930687 279.315430,66.868767 
	C268.452332,58.230732 257.597260,49.582363 246.698547,40.989445 
	C241.180847,36.639091 235.482651,32.514111 230.032974,28.081991 
	C224.131485,23.282421 218.486542,18.168333 212.612930,13.333279 
	C207.866974,9.426483 202.947632,5.730347 198.065750,1.707042 
	C198.026306,1.473320 198.000000,1.000000 198.000000,1.000000 
z"/>
<path fill="#FFFFFF" opacity="1.000000" stroke="none" 
	d="
M1.000001,155.000000 
	C1.000000,103.731071 1.000000,52.462147 1.000000,1.000000 
	C65.687431,1.000000 130.375061,1.000000 195.524292,1.242877 
	C195.985886,1.485755 195.881119,1.960285 195.567688,2.096311 
	C193.480988,3.673310 191.732681,5.146313 189.930573,6.550261 
	C173.432846,19.402912 156.859222,32.159214 140.440842,45.112331 
	C125.151939,57.174358 110.094559,69.529808 94.808548,81.595558 
	C78.393250,94.552696 61.811897,107.299240 45.337261,120.181496 
	C30.534044,131.756790 15.777264,143.391495 1.000001,155.000000 
z"/>
<path fill="#01A2A6" opacity="1.000000" stroke="none" 
	d="
M1.000001,155.468658 
	C15.777264,143.391495 30.534044,131.756790 45.337261,120.181496 
	C61.811897,107.299240 78.393250,94.552696 94.808548,81.595558 
	C110.094559,69.529808 125.151939,57.174358 140.440842,45.112331 
	C156.859222,32.159214 173.432846,19.402912 189.930573,6.550261 
	C191.732681,5.146313 193.480988,3.673310 195.834473,2.113117 
	C196.592651,1.994210 196.770630,1.994525 196.945312,2.463800 
	C197.007523,28.894442 197.073029,54.856121 197.138535,80.817802 
	C187.549759,85.963768 177.890381,90.983261 168.390060,96.287643 
	C156.464111,102.946342 144.686874,109.870796 132.812531,116.622658 
	C112.741249,128.035355 92.654434,139.420837 72.553665,150.781525 
	C62.081104,156.700470 51.588856,162.585526 41.062149,168.407501 
	C27.979227,175.643250 14.851495,182.797958 1.371555,189.993820 
	C1.000000,178.645767 1.000000,167.291550 1.000001,155.468658 
z"/>
<path fill="#096161" opacity="1.000000" stroke="none" 
	d="
M197.489990,80.890770 
	C197.073029,54.856121 197.007523,28.894442 197.235397,2.454461 
	C197.720917,1.964362 197.913055,1.952561 198.105194,1.940762 
	C202.947632,5.730347 207.866974,9.426483 212.612930,13.333279 
	C218.486542,18.168333 224.131485,23.282421 230.032974,28.081991 
	C235.482651,32.514111 241.180847,36.639091 246.698547,40.989445 
	C257.597260,49.582363 268.452332,58.230732 279.315430,66.868767 
	C291.969177,76.930687 304.629547,86.984451 317.254669,97.082230 
	C327.978546,105.659370 338.634613,114.321327 349.361298,122.894936 
	C358.667175,130.332916 368.059052,137.663376 377.355164,145.113388 
	C381.884857,148.743530 386.282837,152.538086 390.972107,156.818115 
	C391.469208,157.585342 391.734619,157.792664 392.000000,158.000000 
	C392.000000,168.020889 392.000000,178.041794 391.648743,188.529633 
	C390.829193,189.011688 390.360901,189.026794 389.892639,189.041901 
	C383.920959,185.849335 377.891052,182.760345 371.989838,179.442459 
	C359.994904,172.698395 348.070648,165.828613 336.115082,159.014511 
	C319.383728,149.478394 302.670166,139.910797 285.910767,130.424149 
	C274.918793,124.202126 263.840576,118.132584 252.834351,111.935524 
	C235.064194,101.930023 217.321915,91.875046 199.565491,81.845139 
	C199.004013,81.527969 198.416718,81.256508 197.489990,80.890770 
z"/>
<path fill="#076E6F" opacity="1.000000" stroke="none" 
	d="
M390.026276,189.333588 
	C390.360901,189.026794 390.829193,189.011688 391.648743,188.998291 
	C392.000000,189.000000 392.000000,189.500000 392.000000,189.750000 
	C391.386627,189.875092 390.773285,189.750198 390.026276,189.333588 
z"/>
<path fill="#039194" opacity="1.000000" stroke="none" 
	d="
M198.065750,1.707040 
	C197.913055,1.952561 197.720917,1.964362 197.238678,1.985501 
	C196.770630,1.994525 196.592651,1.994210 196.147903,1.977090 
	C195.881119,1.960285 195.985886,1.485755 195.992950,1.242877 
	C196.444443,1.000000 196.888885,1.000000 197.666656,1.000000 
	C198.000000,1.000000 198.026306,1.473320 198.065750,1.707040 
z"/>
<path fill="#076E6F" opacity="1.000000" stroke="none" 
	d="
M392.000000,157.750000 
	C391.734619,157.792664 391.469208,157.585342 391.115387,157.136597 
	C391.026947,156.895157 391.509064,156.988541 391.754517,156.994263 
	C392.000000,157.000000 392.000000,157.500000 392.000000,157.750000 
z"/>
<path fill="#313131" opacity="1.000000" stroke="none" 
	d="
M361.042480,321.740234 
	C360.613739,313.353851 360.219727,305.439911 359.784088,296.689667 
	C357.531036,303.954956 354.894562,310.357513 353.671844,317.019531 
	C352.560577,323.074371 349.535919,324.004333 344.405060,322.642365 
	C342.154327,314.060547 339.877747,305.380035 337.601135,296.699524 
	C337.400757,296.690338 337.200378,296.681152 337.000000,296.671967 
	C337.000000,300.944489 337.100067,305.220032 336.972229,309.488770 
	C336.840973,313.871521 336.487061,318.247589 336.221039,322.789337 
	C333.224548,322.789337 330.811584,322.789337 327.680511,322.789337 
	C328.485962,309.923065 329.275848,297.305237 330.107971,284.012421 
	C333.521240,284.012421 336.957764,283.845032 340.358185,284.121704 
	C341.291718,284.197693 342.620758,285.451752 342.911041,286.421722 
	C344.897980,293.061249 346.656555,299.769135 348.731018,307.339050 
	C349.940979,303.768799 350.996460,300.776733 351.960297,297.755432 
	C352.400024,296.377167 352.574615,294.914398 353.013123,293.535614 
	C356.288513,283.236847 356.299744,283.240417 367.977509,284.388458 
	C368.713684,297.054108 369.453979,309.790863 370.241699,323.343536 
	C366.730042,322.910217 363.903625,322.561432 361.042480,321.740234 
z"/>
<path fill="#313131" opacity="1.000000" stroke="none" 
	d="
M279.000000,353.001465 
	C279.000000,347.194733 279.000000,341.887634 279.000000,336.291443 
	C282.668488,336.291443 286.091156,336.291443 289.628784,336.291443 
	C293.466644,343.938049 297.363586,351.702332 301.875366,360.691620 
	C301.875366,351.770233 301.875366,344.123993 301.875366,336.245789 
	C304.737274,336.245789 307.135742,336.245789 309.769501,336.245789 
	C309.769501,349.096619 309.769501,361.834503 309.769501,374.786499 
	C306.662750,374.786499 303.715576,374.786499 300.213074,374.786499 
	C296.141113,366.943970 291.912506,358.799713 287.295166,349.906769 
	C287.295166,358.496246 287.295166,366.428467 287.295166,374.676758 
	C284.408417,374.676758 282.006958,374.676758 279.000000,374.676758 
	C279.000000,367.707825 279.000000,360.604492 279.000000,353.001465 
z"/>
<path fill="#313131" opacity="1.000000" stroke="none" 
	d="
M270.067627,233.563751 
	C279.426239,238.892090 279.880310,247.528839 278.833405,256.157898 
	C278.022675,262.840240 274.619415,268.335144 267.295471,270.231842 
	C254.825836,273.461121 243.164001,268.286774 242.909943,252.782364 
	C242.759399,243.595932 245.183701,235.888580 254.478363,233.146225 
	C259.160461,231.764801 264.657990,233.147110 270.067627,233.563751 
M252.043106,253.175323 
	C252.369781,254.416550 252.342880,255.955963 253.090378,256.842285 
	C255.214478,259.360809 257.297699,262.497559 260.107056,263.630890 
	C261.737457,264.288635 265.530823,262.154724 266.965057,260.239349 
	C271.011688,254.835327 270.955750,248.206650 267.039825,242.683945 
	C263.528046,237.731262 258.739990,237.533951 255.324417,242.447525 
	C253.419220,245.188309 253.060211,249.003876 252.043106,253.175323 
z"/>
<path fill="#313131" opacity="1.000000" stroke="none" 
	d="
M287.000000,303.988037 
	C286.050476,288.030121 299.249603,280.591248 313.026825,285.078796 
	C317.918518,286.672150 320.660217,290.748535 322.030487,295.387909 
	C324.508362,303.777466 323.399048,314.934875 316.566406,319.712616 
	C309.874603,324.391815 302.362396,324.524323 295.338562,320.936218 
	C288.948334,317.671783 286.571960,311.574280 287.000000,303.988037 
M297.855469,310.362091 
	C299.336578,313.830566 302.198669,316.811615 305.618866,315.679993 
	C308.524872,314.718506 311.527161,311.521698 312.714386,308.594910 
	C313.927521,305.604340 313.996674,301.285370 312.700226,298.381042 
	C311.368408,295.397583 308.069183,291.941010 305.109070,291.362671 
	C300.996033,290.559082 297.852051,294.323730 297.163330,298.421844 
	C296.544647,302.103424 297.196381,305.998474 297.855469,310.362091 
z"/>
<path fill="#313131" opacity="1.000000" stroke="none" 
	d="
M248.944580,293.229156 
	C256.797577,282.407745 270.726105,280.562195 278.426056,288.905518 
	C286.437561,297.586365 284.810486,319.286835 271.124390,322.377258 
	C259.051697,325.103424 247.151352,320.938995 247.094528,305.045044 
	C247.080902,301.238281 248.246216,297.427246 248.944580,293.229156 
M268.198425,314.970581 
	C274.247772,309.699890 275.526428,303.899963 272.223145,296.714447 
	C269.256317,290.260773 263.454315,289.169983 259.151245,294.417328 
	C254.965225,299.521912 255.168976,308.575348 259.729584,313.177734 
	C261.808807,315.276031 264.153107,317.325714 268.198425,314.970581 
z"/>
<path fill="#313131" opacity="1.000000" stroke="none" 
	d="
M224.000000,316.956665 
	C224.000000,319.082550 224.000000,320.728760 224.000000,322.686737 
	C221.058624,322.686737 218.326019,322.686737 215.292572,322.686737 
	C215.292572,310.040009 215.292572,297.306976 215.292572,284.015015 
	C221.359802,284.015015 227.500488,283.578217 233.540344,284.170258 
	C237.494217,284.557831 241.580536,286.136688 242.880951,290.790527 
	C244.479858,296.512665 242.771362,301.382202 238.866211,304.400085 
	C240.931961,310.711792 242.891708,316.699646 244.897034,322.826721 
	C243.939636,322.910767 243.444901,322.984985 242.949081,322.993134 
	C235.015137,323.123474 235.050537,323.112366 232.953445,315.033539 
	C231.836273,310.729706 229.669113,307.575104 224.000000,308.162506 
	C224.000000,310.928009 224.000000,313.702484 224.000000,316.956665 
M225.574097,291.010376 
	C224.848175,294.165680 224.122253,297.320953 223.396317,300.476257 
	C223.839722,300.862732 224.283112,301.249237 224.726501,301.635742 
	C227.471985,300.795929 230.502213,300.402130 232.833511,298.913635 
	C233.877991,298.246765 234.351074,294.256134 233.643188,293.736725 
	C231.656036,292.278625 228.919937,291.841187 225.574097,291.010376 
z"/>
<path fill="#313131" opacity="1.000000" stroke="none" 
	d="
M215.000000,360.993469 
	C215.000000,352.525665 215.000000,344.556213 215.000000,336.014313 
	C221.337769,336.014313 227.472229,335.592316 233.512665,336.163849 
	C237.486572,336.539856 241.547760,338.132629 242.871918,342.760254 
	C244.503265,348.461487 242.764847,353.411224 238.840012,356.394958 
	C240.921417,362.690918 242.903534,368.686493 244.901047,374.728638 
	C244.308990,374.861938 244.147491,374.925354 243.983948,374.931274 
	C235.276978,375.244537 235.315460,375.232971 232.835632,366.604523 
	C231.659378,362.511871 229.479126,359.531464 224.172455,360.152039 
	C224.172455,364.882507 224.172455,369.626434 224.172455,374.682983 
	C221.067413,374.682983 218.334732,374.682983 215.000000,374.682983 
	C215.000000,370.357941 215.000000,365.924896 215.000000,360.993469 
M227.336975,352.999878 
	C231.623886,353.241058 234.238266,351.524200 233.963348,346.927185 
	C233.731033,343.042450 231.135681,342.215485 224.004456,343.663635 
	C224.004456,346.065063 223.812622,348.536530 224.115952,350.945648 
	C224.212799,351.714996 225.622574,352.319061 227.336975,352.999878 
z"/>
<path fill="#313131" opacity="1.000000" stroke="none" 
	d="
M312.512085,247.972382 
	C310.941803,249.837921 309.664978,251.414368 308.828247,252.447479 
	C310.855682,258.518738 312.864807,264.535187 314.875244,270.555481 
	C314.297241,270.774261 314.029846,270.959869 313.758484,270.965942 
	C305.322693,271.154633 305.322662,271.151947 302.766174,262.425385 
	C301.361908,257.631866 299.524567,256.262360 294.041321,256.179718 
	C294.041321,260.944031 294.041321,265.709717 294.041321,270.734741 
	C290.970795,270.734741 288.243774,270.734741 285.255371,270.734741 
	C285.255371,257.978607 285.255371,245.267807 285.255371,232.014542 
	C291.364532,232.014542 297.487579,231.594543 303.527130,232.125031 
	C310.460876,232.734085 313.018738,236.152954 312.991394,243.215240 
	C312.985626,244.704819 312.870422,246.193954 312.512085,247.972382 
M294.656464,239.098236 
	C294.371826,242.297379 294.087189,245.496521 293.776489,248.988663 
	C296.133392,248.988663 297.794312,249.156921 299.408386,248.953461 
	C302.715546,248.536591 304.148987,246.427231 303.987518,243.197220 
	C303.833008,240.106232 302.043854,238.856384 299.072784,238.992035 
	C297.908661,239.045197 296.740387,239.007004 294.656464,239.098236 
z"/>
<path fill="#313131" opacity="1.000000" stroke="none" 
	d="
M259.023010,375.000000 
	C255.553467,375.000000 252.576691,375.000000 249.301041,375.000000 
	C249.301041,362.034546 249.301041,349.305420 249.301041,336.287048 
	C256.996124,336.287048 264.728882,336.287048 272.732086,336.287048 
	C272.732086,338.357635 272.732086,340.421417 272.732086,342.927673 
	C267.968628,342.927673 263.214935,342.927673 258.239136,342.927673 
	C258.239136,346.086456 258.239136,348.817322 258.239136,351.985199 
	C262.778564,351.985199 267.198914,351.985199 271.798767,351.985199 
	C271.798767,354.363800 271.798767,356.314148 271.798767,358.702698 
	C267.524078,358.702698 263.120178,358.702698 258.358215,358.702698 
	C258.358215,361.851898 258.358215,364.583801 258.358215,367.770264 
	C262.868011,367.770264 267.610596,367.770264 272.674927,367.770264 
	C272.674927,370.252808 272.674927,372.316772 272.674927,375.000000 
	C268.388794,375.000000 263.952301,375.000000 259.023010,375.000000 
z"/>
<path fill="#313131" opacity="1.000000" stroke="none" 
	d="
M220.147003,232.000031 
	C226.581848,232.000000 232.532639,232.000000 238.738922,232.000000 
	C238.738922,234.368881 238.738922,236.429337 238.738922,238.913803 
	C234.311584,238.913803 229.900726,238.913803 225.253174,238.913803 
	C225.253174,242.384583 225.253174,245.444580 225.253174,248.932999 
	C229.389236,248.932999 233.466537,248.932999 237.762238,248.932999 
	C237.762238,251.408890 237.762238,253.468826 237.762238,255.955139 
	C233.599380,255.955139 229.522293,255.955139 225.040680,255.955139 
	C225.040680,261.090363 225.040680,265.828003 225.040680,270.773499 
	C221.894653,270.773499 219.169662,270.773499 216.003143,270.773499 
	C216.003143,258.537262 215.932373,246.456589 216.160339,234.381561 
	C216.175735,233.565964 218.443008,232.792892 220.147003,232.000031 
z"/>
<path fill="#313131" opacity="1.000000" stroke="none" 
	d="
M325.000000,350.095581 
	C325.000000,347.961121 325.000000,346.313965 325.000000,344.234955 
	C321.446228,344.234955 318.042755,344.234955 314.323120,344.234955 
	C314.323120,341.422028 314.323120,339.025818 314.323120,336.306702 
	C323.898407,336.306702 333.620209,336.306702 343.672241,336.306702 
	C343.672241,338.577667 343.672241,340.973907 343.672241,343.795227 
	C340.757080,343.795227 337.682831,343.795227 334.199432,343.795227 
	C334.199432,354.251312 334.199432,364.306366 334.199432,374.678162 
	C331.078766,374.678162 328.350159,374.678162 325.000000,374.678162 
	C325.000000,366.737274 325.000000,358.660065 325.000000,350.095581 
z"/>
<path fill="#FFFFFF" opacity="1.000000" stroke="none" 
	d="
M116.000000,242.000000 
	C116.000015,222.355865 116.064919,203.211258 115.931671,184.068054 
	C115.911140,181.119919 116.817345,179.938950 119.630386,178.884552 
	C134.345078,173.369049 148.935089,167.521149 163.574554,161.804398 
	C164.930618,161.274857 166.329437,160.854767 167.882782,160.324295 
	C167.882782,196.138077 167.882782,231.717667 167.882782,267.648651 
	C150.750137,267.648651 133.704437,267.648651 116.000000,267.648651 
	C116.000000,259.339539 116.000000,250.919769 116.000000,242.000000 
z"/>
<path fill="#FFFFFF" opacity="1.000000" stroke="none" 
	d="
M124.974548,366.994598 
	C115.999992,363.454498 115.999992,363.454498 115.999992,353.852386 
	C116.000000,330.199646 116.000000,306.546936 116.000000,282.894196 
	C116.000000,281.099823 116.000000,279.305450 116.000000,277.258148 
	C133.447708,277.258148 150.499222,277.258148 167.775589,277.258148 
	C167.775589,312.726257 167.775589,347.989777 167.775589,383.774567 
	C153.585281,378.183563 139.475647,372.624329 124.974548,366.994598 
z"/>
<path fill="#FFFFFF" opacity="1.000000" stroke="none" 
	d="
M69.000000,253.993347 
	C69.000000,235.187973 69.000000,216.880936 69.000000,198.672882 
	C81.580475,193.756714 93.912865,188.937500 106.642242,183.963135 
	C106.642242,211.898010 106.642242,239.581467 106.642242,267.633057 
	C94.442909,267.633057 82.055283,267.633057 69.000000,267.633057 
	C69.000000,263.341492 69.000000,258.916565 69.000000,253.993347 
z"/>
<path fill="#FFFFFF" opacity="1.000000" stroke="none" 
	d="
M71.613892,347.257141 
	C70.506607,345.776398 69.104469,344.512451 69.097755,343.241180 
	C68.983566,321.606720 69.040955,299.971344 69.077927,278.336182 
	C69.078423,278.045471 69.303207,277.755188 69.517868,277.235992 
	C81.699638,277.235992 93.962456,277.235992 106.613235,277.235992 
	C106.613235,304.835114 106.613235,332.536713 106.613235,360.603424 
	C95.145027,356.256134 83.556717,351.863342 71.613892,347.257141 
z"/>
<path fill="#FFFFFF" opacity="1.000000" stroke="none" 
	d="
M252.023773,252.755219 
	C253.060211,249.003876 253.419220,245.188309 255.324417,242.447525 
	C258.739990,237.533951 263.528046,237.731262 267.039825,242.683945 
	C270.955750,248.206650 271.011688,254.835327 266.965057,260.239349 
	C265.530823,262.154724 261.737457,264.288635 260.107056,263.630890 
	C257.297699,262.497559 255.214478,259.360809 253.090378,256.842285 
	C252.342880,255.955963 252.369781,254.416550 252.023773,252.755219 
z"/>
<path fill="#FFFFFF" opacity="1.000000" stroke="none" 
	d="
M297.571594,310.080750 
	C297.196381,305.998474 296.544647,302.103424 297.163330,298.421844 
	C297.852051,294.323730 300.996033,290.559082 305.109070,291.362671 
	C308.069183,291.941010 311.368408,295.397583 312.700226,298.381042 
	C313.996674,301.285370 313.927521,305.604340 312.714386,308.594910 
	C311.527161,311.521698 308.524872,314.718506 305.618866,315.679993 
	C302.198669,316.811615 299.336578,313.830566 297.571594,310.080750 
z"/>
<path fill="#FFFFFF" opacity="1.000000" stroke="none" 
	d="
M267.813782,315.036011 
	C264.153107,317.325714 261.808807,315.276031 259.729584,313.177734 
	C255.168976,308.575348 254.965225,299.521912 259.151245,294.417328 
	C263.454315,289.169983 269.256317,290.260773 272.223145,296.714447 
	C275.526428,303.899963 274.247772,309.699890 267.813782,315.036011 
z"/>
<path fill="#FFFFFF" opacity="1.000000" stroke="none" 
	d="
M226.026672,291.005768 
	C228.919937,291.841187 231.656036,292.278625 233.643188,293.736725 
	C234.351074,294.256134 233.877991,298.246765 232.833511,298.913635 
	C230.502213,300.402130 227.471985,300.795929 224.726501,301.635742 
	C224.283112,301.249237 223.839722,300.862732 223.396317,300.476257 
	C224.122253,297.320953 224.848175,294.165680 226.026672,291.005768 
z"/>
<path fill="#FFFFFF" opacity="1.000000" stroke="none" 
	d="
M226.884308,352.999329 
	C225.622574,352.319061 224.212799,351.714996 224.115952,350.945648 
	C223.812622,348.536530 224.004456,346.065063 224.004456,343.663635 
	C231.135681,342.215485 233.731033,343.042450 233.963348,346.927185 
	C234.238266,351.524200 231.623886,353.241058 226.884308,352.999329 
z"/>
<path fill="#FFFFFF" opacity="1.000000" stroke="none" 
	d="
M295.115234,239.054321 
	C296.740387,239.007004 297.908661,239.045197 299.072784,238.992035 
	C302.043854,238.856384 303.833008,240.106232 303.987518,243.197220 
	C304.148987,246.427231 302.715546,248.536591 299.408386,248.953461 
	C297.794312,249.156921 296.133392,248.988663 293.776489,248.988663 
	C294.087189,245.496521 294.371826,242.297379 295.115234,239.054321 
z"/>
</svg>